:SAMPLES-PER-SECOND 30
:FRAME-RANGE 1-1700
:FULLY-SPECIFIED
:DEGREES
532
root  87.8507 39.3457 3.59443 -8.28485 2.42195 6.36798
RightUpLeg  -4.85001 -1.63785 0.679354
RightLeg  41.1738 4.30817 3.74342
RightFoot  -9.09927 -0.00106117 -3.08845
RightToes  6.35937e-011 1.2921e-014 -6.02303e-014
Spine  18.9197 1.78221 -4.19556
Spine1  -4.07502 -1.91784 11.4663
HEad  41.5991 -29.6604 4.78823
LeftShoulder1  1.78818 -8.3694 -8.03989
LeftArm  12.3677 -28.0507 -82.2901
LeftForeArm  74.0035 -10.35 -9.92154
LeftHand  -0.224138 12.5324 -2.42286
RightShoulder  2.40142 3.82687 27.7509
RightArm  -5.13103 29.3018 75.6456
RightForeArm  90.7448 -5.31398 9.05194
RightHand  1.06215 -11.925 -19.082
LeftUpLeg  -102.316 9.12159 -50.5887
LeftLeg  109.393 3.01182 -8.39039
LeftFoot  -30.9735 -1.61029 -10.3619
LeftToes  -1.9349e-011 5.45182e-011 1.33515e-010
533
root  88.0526 40.1146 4.48736 -8.23456 -0.892746 6.96411
RightUpLeg  -7.16144 -0.429446 -1.27829
RightLeg  45.0297 7.29803 7.45909
RightFoot  -1.71191 -0.0342239 0.267842
RightToes  6.35937e-011 1.2921e-014 -6.02303e-014
Spine  18.6884 2.07572 -3.29149
Spine1  -3.81606 -1.29623 10.6573
HEad  41.3564 -28.4486 3.51164
LeftShoulder1  1.81352 -8.97249 -7.4264
LeftArm  12.0903 -27.1996 -82.13
LeftForeArm  72.1508 -11.9361 -9.1664
LeftHand  -0.228813 13.3132 -2.19044
RightShoulder  2.50165 4.22641 27.2864
RightArm  -5.71357 30.1739 76.5424
RightForeArm  91.3384 -5.18281 8.39659
RightHand  1.14365 -12.2199 -19.602
LeftUpLeg  -104.043 9.13507 -50.081
LeftLeg  109.06 3.41472 -9.55155
LeftFoot  -31.0107 -1.6219 -10.4098
LeftToes  -1.9349e-011 5.45182e-011 1.33515e-010
534
root  88.2696 40.4535 5.31208 -8.56708 -3.11639 7.57422
RightUpLeg  -9.22914 0.496423 -2.4008
RightLeg  47.6901 4.28797 4.70449
RightFoot  -1.72816 -0.253935 2.87827
RightToes  6.35937e-011 1.2921e-014 -6.02303e-014
Spine  19.1814 2.08811 -3.35117
Spine1  -3.50322 -1.31152 10.9319
HEad  39.9027 -26.5781 2.90113
LeftShoulder1  1.78558 -8.58151 -7.70853
LeftArm  11.2257 -27.8598 -82.2657
LeftForeArm  72.7586 -11.5362 -9.21881
LeftHand  -0.208688 12.8594 -2.06026
RightShoulder  2.50916 4.2899 27.1019
RightArm  -5.51905 30.6927 76.7461
RightForeArm  91.4166 -5.17645 8.37929
RightHand  1.092 -11.9579 -19.4857
LeftUpLeg  -104.226 8.79696 -49.63
LeftLeg  108.355 3.03313 -8.90343
LeftFoot  -30.8628 -1.59737 -10.343
LeftToes  -1.9349e-011 5.45182e-011 1.33515e-010
535
root  88.3617 40.6478 6.15699 -8.86285 -4.26909 6.96741
RightUpLeg  -8.60583 0.455326 -1.69488
RightLeg  41.9399 -0.0524775 -0.342391
RightFoot  -8.40506 -0.060324 0.130607
RightToes  6.35937e-011 1.2921e-014 -6.02303e-014
Spine  20.279 2.08664 -2.98302
Spine1  -3.43575 -1.44299 12.1556
HEad  39.1686 -25.7406 3.03075
LeftShoulder1  1.84379 -8.5166 -8.353
LeftArm  8.75678 -28.9502 -83.1517
LeftForeArm  75.7444 -9.53381 -9.68966
LeftHand  -0.18365 13.0408 -1.63251
RightShoulder  2.47452 4.14229 27.2961
RightArm  -5.35497 31.0896 75.6584
RightForeArm  90.4869 -5.25179 8.58457
RightHand  1.07435 -11.7965 -19.6489
LeftUpLeg  -102.671 8.98554 -48.4012
LeftLeg  107.443 2.63298 -8.23776
LeftFoot  -30.7754 -1.58011 -10.287
LeftToes  -1.9349e-011 5.45182e-011 1.33515e-010
536
root  88.5105 40.4966 6.91304 -8.07361 -6.44232 6.60992
RightUpLeg  -8.62199 1.48816 -0.970223
RightLeg  31.5033 -2.70778 -2.03189
RightFoot  -15.8696 -0.0692249 0.965777
RightToes  6.35937e-011 1.2921e-014 -6.02303e-014
Spine  21.5575 2.11239 -1.9797
Spine1  -3.99654 -1.16895 12.2498
HEad  38.541 -25.2351 3.10718
LeftShoulder1  1.88617 -8.24314 -9.17703
LeftArm  8.06488 -29.5647 -83.5418
LeftForeArm  76.9812 -8.79122 -9.80338
LeftHand  -0.132419 12.4903 -1.00271
RightShoulder  2.59425 4.76875 26.1664
RightArm  -5.19961 31.8298 75.618
RightForeArm  90.6653 -5.23298 8.51761
RightHand  1.03621 -11.6297 -19.4806
LeftUpLeg  -102.109 9.19486 -47.752
LeftLeg  106.35 2.42583 -8.14148
LeftFoot  -30.7117 -1.57192 -10.2713
LeftToes  -1.9349e-011 5.45182e-011 1.33515e-010
537
root  88.6311 39.7711 7.64363 -6.99969 -9.78983 6.67792
RightUpLeg  -10.5953 2.29475 -0.455548
RightLeg  24.0159 -1.89194 -1.14351
RightFoot  -20.6129 0.231209 4.57281
RightToes  6.35937e-011 1.2921e-014 -6.02303e-014
Spine  22.3006 2.15113 -0.9291
Spine1  -3.62659 -0.572523 10.0713
HEad  36.9389 -24.5729 4.18775
LeftShoulder1  1.71337 -8.01391 -7.83865
LeftArm  9.22548 -29.5592 -84.2388
LeftForeArm  76.4993 -10.5459 -9.245
LeftHand  -0.163682 12.5719 -1.46913
RightShoulder  2.80928 5.54897 25.7568
RightArm  -3.61961 32.368 75.5991
RightForeArm  88.9308 -5.45956 9.44916
RightHand  1.02612 -11.4187 -19.9401
LeftUpLeg  -103.161 9.62206 -47.4256
LeftLeg  105.924 2.32219 -8.03002
LeftFoot  -30.7138 -1.5521 -10.1549
LeftToes  -1.9349e-011 5.45182e-011 1.33515e-010
538
root  88.717 38.7863 8.45366 -6.47791 -12.8387 6.4248
RightUpLeg  -13.0552 0.918753 0.734467
RightLeg  22.7364 0.0891902 -0.179744
RightFoot  -17.8679 0.0779173 3.48887
RightToes  6.35937e-011 1.2921e-014 -6.02303e-014
Spine  23.5604 2.75179 -0.0594467
Spine1  -4.11029 0.240337 9.3456
HEad  36.2821 -24.645 3.99415
LeftShoulder1  1.70285 -8.06816 -7.65386
LeftArm  12.0494 -29.5187 -85.204
LeftForeArm  76.8154 -12.1835 -8.76933
LeftHand  -0.203456 13.0512 -1.91746
RightShoulder  2.9605 6.24734 24.9925
RightArm  -2.06233 31.918 74.0805
RightForeArm  86.247 -5.77503 10.6903
RightHand  1.01721 -11.2011 -20.4749
LeftUpLeg  -103.124 10.4366 -46.0938
LeftLeg  105.55 2.54721 -8.90119
LeftFoot  -30.9922 -1.55919 -10.0595
LeftToes  -1.9349e-011 5.45182e-011 1.33515e-010
539
root  88.7513 37.4959 9.29604 -8.10211 -15.3764 6.02557
RightUpLeg  -17.8229 4.22328 2.71271
RightLeg  36.3212 -3.20907 -2.79771
RightFoot  -12.8164 -0.177679 -7.07548
RightToes  6.35937e-011 1.2921e-014 -6.02303e-014
Spine  24.4985 3.78321 0.474396
Spine1  -2.248 0.952058 9.96678
HEad  34.0889 -24.7772 3.69401
LeftShoulder1  1.74471 -8.29086 -7.73598
LeftArm  10.7605 -30.5355 -87.7836
LeftForeArm  83.2297 -12.2933 -8.44665
LeftHand  -0.272853 13.665 -2.66433
RightShoulder  3.03009 6.79322 23.9587
RightArm  -0.510963 32.6711 72.053
RightForeArm  83.2635 -5.94925 11.7681
RightHand  0.859257 -10.2768 -20.6131
LeftUpLeg  -101.536 12.1995 -44.2876
LeftLeg  105.977 2.54099 -8.66043
LeftFoot  -30.7334 -1.48842 -9.77504
LeftToes  -1.9349e-011 5.45182e-011 1.33515e-010
540
root  88.8782 36.1287 10.1502 -10.4818 -15.4597 5.15594
RightUpLeg  -19.4875 3.24843 3.61593
RightLeg  47.6119 -2.75045 -3.55897
RightFoot  -18.1048 -0.558663 -7.3731
RightToes  6.35937e-011 1.2921e-014 -6.02303e-014
Spine  26.6218 2.47644 1.07258
Spine1  -0.574586 0.196271 9.41261
HEad  32.4292 -23.9986 4.70066
LeftShoulder1  1.62294 -8.39077 -6.42161
LeftArm  12.745 -31.6787 -89.6176
LeftForeArm  83.9545 -12.0702 -8.68187
LeftHand  -0.305083 14.4034 -2.7943
RightShoulder  3.19097 7.46684 23.5595
RightArm  0.242136 33.1319 70.6819
RightForeArm  81.0035 -5.48622 12.4147
RightHand  0.787872 -9.58251 -21.9585
LeftUpLeg  -98.1178 11.4078 -42.8543
LeftLeg  106.307 1.88919 -6.56881
LeftFoot  -30.1664 -1.36883 -9.33578
LeftToes  -1.9349e-011 5.45182e-011 1.33515e-010
541
root  88.7154 35.2766 11.2791 -11.3978 -14.1837 5.68066
RightUpLeg  -19.6899 1.63286 2.82526
RightLeg  54.2311 -2.37736 -3.9519
RightFoot  -23.5056 -0.919825 -7.12906
RightToes  6.35937e-011 1.2921e-014 -6.02303e-014
Spine  26.457 2.46438 -1.19858
Spine1  -1.54153 -0.671168 11.0907
HEad  32.5834 -24.9475 5.28852
LeftShoulder1  1.68986 -8.57084 -6.81851
LeftArm  11.5247 -30.9568 -90.823
LeftForeArm  87.9961 -11.6678 -8.70709
LeftHand  -0.389529 14.5175 -3.78222
RightShoulder  3.21905 7.21054 24.602
RightArm  4.05113 31.5113 67.8017
RightForeArm  75.8302 -3.5704 14.0021
RightHand  0.565696 -8.27732 -22.9255
LeftUpLeg  -95.9819 9.36353 -43.6563
LeftLeg  107.344 1.9213 -6.29006
LeftFoot  -30.1512 -1.39942 -9.5265
LeftToes  -1.9349e-011 5.45182e-011 1.33515e-010
